<svg width="355" height="40" viewBox="0 0 355 40" fill="none" xmlns="http://www.w3.org/2000/svg">
<g clip-path="url(#clip0_1_21)">
<rect width="355" height="40" rx="20" fill="#B2D9EA"/>
</g>
<path d="M149.739 25V11.9091H150.934V23.9261H157.173V25H149.739ZM163.443 25.2045C162.595 25.2045 161.845 24.9893 161.193 24.5589C160.545 24.1286 160.038 23.5341 159.672 22.7756C159.305 22.0128 159.122 21.1328 159.122 20.1357C159.122 19.13 159.305 18.2457 159.672 17.483C160.038 16.7159 160.545 16.1193 161.193 15.6932C161.845 15.2628 162.595 15.0476 163.443 15.0476C164.291 15.0476 165.039 15.2628 165.687 15.6932C166.335 16.1236 166.842 16.7202 167.208 17.483C167.579 18.2457 167.764 19.13 167.764 20.1357C167.764 21.1328 167.581 22.0128 167.214 22.7756C166.848 23.5341 166.339 24.1286 165.687 24.5589C165.039 24.9893 164.291 25.2045 163.443 25.2045ZM163.443 24.1626C164.125 24.1626 164.702 23.9794 165.175 23.6129C165.648 23.2464 166.006 22.7585 166.249 22.1491C166.496 21.5398 166.62 20.8686 166.62 20.1357C166.62 19.4027 166.496 18.7294 166.249 18.1158C166.006 17.5021 165.648 17.0099 165.175 16.6392C164.702 16.2685 164.125 16.0831 163.443 16.0831C162.766 16.0831 162.188 16.2685 161.711 16.6392C161.238 17.0099 160.878 17.5021 160.631 18.1158C160.388 18.7294 160.266 19.4027 160.266 20.1357C160.266 20.8686 160.388 21.5398 160.631 22.1491C160.878 22.7585 161.238 23.2464 161.711 23.6129C162.184 23.9794 162.761 24.1626 163.443 24.1626ZM174.008 28.8864C173.339 28.8864 172.753 28.799 172.25 28.6243C171.747 28.4538 171.323 28.2195 170.978 27.9212C170.633 27.6229 170.364 27.2884 170.172 26.9176L171.106 26.304C171.246 26.5511 171.434 26.794 171.668 27.0327C171.907 27.2713 172.216 27.4695 172.595 27.6271C172.979 27.7848 173.449 27.8636 174.008 27.8636C174.877 27.8636 175.578 27.6463 176.111 27.2116C176.648 26.777 176.916 26.1016 176.916 25.1854V22.9737H176.814C176.682 23.272 176.492 23.5703 176.245 23.8686C175.998 24.1626 175.674 24.4077 175.273 24.6037C174.877 24.7997 174.385 24.8977 173.797 24.8977C173.013 24.8977 172.316 24.7038 171.706 24.3161C171.101 23.9283 170.624 23.3743 170.275 22.6541C169.93 21.9297 169.757 21.0668 169.757 20.0653C169.757 19.0724 169.925 18.1989 170.262 17.4446C170.603 16.6903 171.078 16.1023 171.687 15.6804C172.297 15.2585 173.006 15.0476 173.816 15.0476C174.417 15.0476 174.915 15.1541 175.312 15.3672C175.708 15.576 176.025 15.8359 176.264 16.147C176.507 16.4581 176.697 16.7607 176.833 17.0547H176.948V15.1818H178.06V25.2557C178.06 26.0866 177.883 26.7706 177.53 27.3075C177.176 27.8445 176.694 28.2408 176.085 28.4964C175.476 28.7564 174.783 28.8864 174.008 28.8864ZM173.931 23.8558C174.562 23.8558 175.101 23.7045 175.548 23.402C175.996 23.0952 176.339 22.6562 176.577 22.0852C176.816 21.5142 176.935 20.8345 176.935 20.0462C176.935 19.2791 176.818 18.5994 176.584 18.0071C176.349 17.4105 176.008 16.9418 175.561 16.6009C175.118 16.2557 174.574 16.0831 173.931 16.0831C173.275 16.0831 172.721 16.2599 172.269 16.6136C171.817 16.9673 171.476 17.4446 171.246 18.0455C171.016 18.642 170.901 19.3089 170.901 20.0462C170.901 20.7962 171.018 21.4588 171.253 22.0341C171.487 22.6051 171.83 23.0526 172.282 23.3764C172.733 23.696 173.283 23.8558 173.931 23.8558ZM181.085 25V15.1818H182.229V25H181.085ZM181.667 13.4943C181.433 13.4943 181.232 13.4155 181.066 13.2578C180.9 13.0959 180.817 12.902 180.817 12.6761C180.817 12.4503 180.9 12.2585 181.066 12.1009C181.232 11.9389 181.433 11.858 181.667 11.858C181.901 11.858 182.102 11.9389 182.268 12.1009C182.434 12.2585 182.517 12.4503 182.517 12.6761C182.517 12.902 182.434 13.0959 182.268 13.2578C182.102 13.4155 181.901 13.4943 181.667 13.4943ZM186.376 18.8636V25H185.238V15.1818H186.344V16.7223H186.447C186.677 16.2195 187.035 15.8168 187.52 15.5142C188.01 15.2074 188.616 15.054 189.336 15.054C189.996 15.054 190.576 15.1925 191.074 15.4695C191.577 15.7422 191.967 16.1449 192.244 16.6776C192.525 17.2102 192.666 17.8643 192.666 18.6399V25H191.528V18.7102C191.528 17.9048 191.302 17.2678 190.851 16.799C190.403 16.3303 189.802 16.0959 189.048 16.0959C188.532 16.0959 188.074 16.2067 187.674 16.4283C187.273 16.6499 186.956 16.9695 186.721 17.3871C186.491 17.8004 186.376 18.2926 186.376 18.8636Z" fill="black"/>
<defs>
<clipPath id="clip0_1_21">
<rect width="355" height="40" rx="10" fill="white"/>
</clipPath>
</defs>
</svg>
